<?xml version="1.0" encoding="UTF-8"?>
<svg version="1.1" viewBox="0 0 1032 848" width="258" height="212" xmlns="http://www.w3.org/2000/svg">
  <path transform="translate(774,54)" d="m0 0h19l-2 5-11 23-43 86-9 16-1 1-9 1-201 7-8 1-12 24-10 19-34 68-10 19-8 15-1 1h42l46-2 70-2 45-2 70-2 77-3 118-4-1 5-10 19-10 20-10 19-14 28-9 17-8 16-5 8-4 1-44 1-197 7-173 6-42 2-9 1-15 30-10 19-12 24-9 17-9 19-10 19-9 17-1 2 14-1 76-2 81-3 428-15 16-1-2 5-22 44-10 19-15 29-11 21-6 12-2 2-63 3-395 14-144 5h-13v-3l17-33 25-50 10-19 13-25-50 2-69 2-27 1 2-5 12-22 49-98 10-19 14-28 10-19 27-54 10-19 24-47 12-23 34-68 10-19 5-9-102 3-49 2-68 2-28 1 2-5 29-58 10-19 15-30 10-19 2-1 41-2 91-3 77-3 347-12z" fill="#FFFFFF">
    <animate attributeName="opacity" from="1" to="0.5" dur="2s" repeatCount="indefinite" />
    <animate attributeName="transform" type="translate" from="0 0" to="0 5" dur="2s" repeatCount="indefinite" />
  </path>
</svg>
